<?xml version="1.0" encoding="UTF-8" standalone="no"?>
<svg
   width="24"
   height="24"
   viewBox="0 0 24 24"
   version="1.1"
   xml:space="preserve"
   style="clip-rule:evenodd;fill-rule:evenodd;stroke-linejoin:round;stroke-miterlimit:2"
   id="svg531"
   sodipodi:docname="v1.svg"
   inkscape:version="1.2.2 (b0a8486541, 2022-12-01)"
   xmlns:inkscape="http://www.inkscape.org/namespaces/inkscape"
   xmlns:sodipodi="http://sodipodi.sourceforge.net/DTD/sodipodi-0.dtd"
   xmlns="http://www.w3.org/2000/svg"
   xmlns:svg="http://www.w3.org/2000/svg"
   xmlns:serif="http://www.serif.com/"><defs
   id="defs535" /><sodipodi:namedview
   id="namedview533"
   pagecolor="#505050"
   bordercolor="#eeeeee"
   borderopacity="1"
   inkscape:showpageshadow="0"
   inkscape:pageopacity="0"
   inkscape:pagecheckerboard="0"
   inkscape:deskcolor="#505050"
   showgrid="false"
   inkscape:current-layer="svg531" />
    <g
   transform="matrix(0.00684176,0,0,0.00967617,-5.4529688e-6,0)"
   id="g529">
        <rect
   id="Artboard1"
   x="0"
   y="0"
   width="3507.8701"
   height="2480.3201"
   style="fill:none" />
        <g
   id="Artboard11"
   serif:id="Artboard1">
            <g
   id="Polygon-1"
   transform="matrix(1.41429,0,0,1,258.717,0)">
                <path
   d="M 1057.23,0 2114.45,620.079 V 1860.24 L 1057.23,2480.32 0,1860.24 V 620.079 Z m 409.39,1848.77 15.88,-2.12 c 11.69,-4.35 22.64,-8.36 29.8,-19.59 23.4,-33.99 -36.91,-47.76 -58.51,-85.42 -21.61,-37.66 -110.71,-244.32 -43.21,-302.19 67.52,-57.86 140.43,-81.74 168.33,-135.93 12.08,-24.44 24.61,-49.1 27.8,-76.74 16.44,13.64 29.29,26.42 51.41,27.14 58.51,3.67 108.92,-67.97 135.02,-135.94 13.95,-41.72 25.23,-85.95 22.57,-126.698 -7.16,-78.521 1.34,-163.432 63.99,-215.624 -61.82,31.209 -120.58,71.329 -190.59,81.467 -38.67,-11.744 -77.57,-22.325 -118.52,-20.665 -20.07,-26.141 -47.18,-75.068 -82.37,-80.739 -59.95,21.454 -61.74,114.128 -87.03,239.867 -39.07,-10.624 -78.83,-18.083 -119.32,-19.973 -55.81,-3.675 -146.73,13.777 -210.64,11.94 -63.9,-1.837 -189.685,-58.093 -294.338,-45.924 -42.077,5.174 -84.476,12.356 -123.538,30.056 -23.897,10.829 -58.395,43.493 -75.741,48.343 -174.768,48.86 -459.075,46.84 -400.904,-217.203 4.53,-20.281 5.823,-38.569 -3.181,-43.128 -11.219,-5.682 -17.514,6.215 -24.132,19.301 -101.767,220.983 78.964,363.17 284.475,363.81 64.531,-4.98 33.423,-0.72 93.411,-12.18 l -1.53,8.48 c -4.239,73.2 28.413,137.81 89.38,177.51 -27.97,79.74 -83.253,143.52 -121.202,216.75 14.265,91.04 106.525,212.6 144.707,229.91 33.61,15.24 107.002,15.39 123.971,-9.14 6.06,-11.53 2.075,-36.32 -4.607,-49.02 28.701,31.8 67.33,76.09 104.732,97.39 22.397,10.68 44.863,17.61 69.997,18.47 l 31.942,-1.53 c 15.968,-3.44 34.763,-6.02 45.458,-20.22 12.08,-20.55 0.8,-78.08 -49.133,-82.19 -49.938,-4.11 -82.155,-23.01 -128.065,-91.22 -37.822,-65.95 7.936,-156.78 23.33,-221.67 78.996,12.72 158.568,22.73 238.678,22.93 34.76,-1.77 69.21,-3.02 103.47,-9.61 10.93,27.92 41.52,106 41.78,128.06 0.73,62.14 -22.63,124.59 -12.57,186.72 6.28,18.3 0.56,52.94 36.29,54.36 21.37,1.09 8.02,0.43 40.05,1.88 l 27.52,-0.8 c 35.31,59.25 65.81,59.08 135.14,61.08 z m -776.977,-171.5 -6.517,-5.81 c -19.044,-20.5 -68.157,-56.28 -59.136,-89.43 7.709,-24.58 22.051,-47.28 33.353,-70.62 l -0.407,2.41 c -2.024,29.17 -6.04,57.92 3.371,86.49 28.672,23.6 68.468,61.03 94.884,86.52 -14.346,-3.96 -41.388,-12.05 -54.842,-6.82 z"
   id="path525" />
            </g>
        </g>
    </g>
</svg>
